<svg viewBox="0 0 250 250" xmlns="http://www.w3.org/2000/svg">
<defs><link rel="stylesheet" href="grid.css" /></defs>
<rect x="0" y="0" width="50" height="50" stroke="black" stroke-width="2" fill="white" />
<polygon points="25,37.5 12.5,12.5 37.5,12.5" class="arrow" fill="lightgrey" stroke="darkslategrey" stroke-width="2" />
<text x="25" y="25" font-size="24" font-family="sans-serif" text-anchor="middle" alignment-baseline="central" stroke="black" fill="black">1</text>
<rect x="50" y="0" width="50" height="50" stroke="black" stroke-width="2" fill="white" />
<polygon points="62.5,25 87.5,12.5 87.5,37.5" class="arrow" fill="lightgrey" stroke="darkslategrey" stroke-width="2" />
<text x="75" y="25" font-size="24" font-family="sans-serif" text-anchor="middle" alignment-baseline="central" stroke="black" fill="black">1</text>
<rect x="100" y="0" width="50" height="50" stroke="black" stroke-width="2" fill="white" />
<polygon points="125,12.5 112.5,37.5 137.5,37.5" class="arrow" fill="lightgrey" stroke="darkslategrey" stroke-width="2" />
<text x="125" y="25" font-size="24" font-family="sans-serif" text-anchor="middle" alignment-baseline="central" stroke="black" fill="black">3</text>
<rect x="150" y="0" width="50" height="50" stroke="black" stroke-width="2" fill="white" />
<polygon points="175,12.5 162.5,37.5 187.5,37.5" class="arrow" fill="lightgrey" stroke="darkslategrey" stroke-width="2" />
<text x="175" y="25" font-size="24" font-family="sans-serif" text-anchor="middle" alignment-baseline="central" stroke="black" fill="black">4</text>
<rect x="200" y="0" width="50" height="50" stroke="black" stroke-width="2" fill="white" />
<polygon points="225,37.5 212.5,12.5 237.5,12.5" class="arrow" fill="lightgrey" stroke="darkslategrey" stroke-width="2" />
<text x="225" y="25" font-size="24" font-family="sans-serif" text-anchor="middle" alignment-baseline="central" stroke="black" fill="black">1</text>

<rect x="0" y="50" width="50" height="50" stroke="black" stroke-width="2" fill="white" />
<polygon points="25,62.5 12.5,87.5 37.5,87.5" class="arrow" fill="lightgrey" stroke="darkslategrey" stroke-width="2" />
<text x="25" y="75" font-size="24" font-family="sans-serif" text-anchor="middle" alignment-baseline="central" stroke="black" fill="black">1</text>
<rect x="50" y="50" width="50" height="50" stroke="black" stroke-width="2" fill="white" />
<polygon points="75,62.5 62.5,87.5 87.5,87.5" class="arrow" fill="lightgrey" stroke="darkslategrey" stroke-width="2" />
<text x="75" y="75" font-size="24" font-family="sans-serif" text-anchor="middle" alignment-baseline="central" stroke="black" fill="black">2</text>
<rect x="100" y="50" width="50" height="50" stroke="black" stroke-width="2" fill="white" />
<polygon points="137.5,75 112.5,62.5 112.5,87.5" class="arrow" fill="lightgrey" stroke="darkslategrey" stroke-width="2" />
<text x="125" y="75" font-size="24" font-family="sans-serif" text-anchor="middle" alignment-baseline="central" stroke="black" fill="black">2</text>
<rect x="150" y="50" width="50" height="50" stroke="black" stroke-width="2" fill="white" />
<polygon points="175,87.5 162.5,62.5 187.5,62.5" class="arrow" fill="lightgrey" stroke="darkslategrey" stroke-width="2" />
<text x="175" y="75" font-size="24" font-family="sans-serif" text-anchor="middle" alignment-baseline="central" stroke="black" fill="black">1</text>
<rect x="200" y="50" width="50" height="50" stroke="black" stroke-width="2" fill="white" />
<polygon points="225,87.5 212.5,62.5 237.5,62.5" class="arrow" fill="lightgrey" stroke="darkslategrey" stroke-width="2" />
<text x="225" y="75" font-size="24" font-family="sans-serif" text-anchor="middle" alignment-baseline="central" stroke="black" fill="black">1</text>

<rect x="0" y="100" width="50" height="50" stroke="black" stroke-width="2" fill="white" />
<polygon points="25,112.5 12.5,137.5 37.5,137.5" class="arrow" fill="lightgrey" stroke="darkslategrey" stroke-width="2" />
<text x="25" y="125" font-size="24" font-family="sans-serif" text-anchor="middle" alignment-baseline="central" stroke="black" fill="black">1</text>
<rect x="50" y="100" width="50" height="50" stroke="black" stroke-width="2" fill="white" />
<polygon points="75,112.5 62.5,137.5 87.5,137.5" class="arrow" fill="lightgrey" stroke="darkslategrey" stroke-width="2" />
<text x="75" y="125" font-size="24" font-family="sans-serif" text-anchor="middle" alignment-baseline="central" stroke="black" fill="black">2</text>
<rect x="100" y="100" width="50" height="50" stroke="black" stroke-width="2" fill="white" />
<polygon points="125,137.5 112.5,112.5 137.5,112.5" class="arrow" fill="lightgrey" stroke="darkslategrey" stroke-width="2" />
<text x="125" y="125" font-size="24" font-family="sans-serif" text-anchor="middle" alignment-baseline="central" stroke="black" fill="black">2</text>
<rect x="150" y="100" width="50" height="50" stroke="black" stroke-width="2" fill="white" />
<polygon points="175,137.5 162.5,112.5 187.5,112.5" class="arrow" fill="lightgrey" stroke="darkslategrey" stroke-width="2" />
<text x="175" y="125" font-size="24" font-family="sans-serif" text-anchor="middle" alignment-baseline="central" stroke="black" fill="black">1</text>
<rect x="200" y="100" width="50" height="50" stroke="black" stroke-width="2" fill="white" />
<polygon points="212.5,125 237.5,112.5 237.5,137.5" class="arrow" fill="lightgrey" stroke="darkslategrey" stroke-width="2" />
<text x="225" y="125" font-size="24" font-family="sans-serif" text-anchor="middle" alignment-baseline="central" stroke="black" fill="black">3</text>

<rect x="0" y="150" width="50" height="50" stroke="black" stroke-width="2" fill="white" />
<polygon points="37.5,175 12.5,162.5 12.5,187.5" class="arrow" fill="lightgrey" stroke="darkslategrey" stroke-width="2" />
<text x="25" y="175" font-size="24" font-family="sans-serif" text-anchor="middle" alignment-baseline="central" stroke="black" fill="black">3</text>
<rect x="50" y="150" width="50" height="50" stroke="black" stroke-width="2" fill="white" />
<polygon points="75,187.5 62.5,162.5 87.5,162.5" class="arrow" fill="lightgrey" stroke="darkslategrey" stroke-width="2" />
<text x="75" y="175" font-size="24" font-family="sans-serif" text-anchor="middle" alignment-baseline="central" stroke="black" fill="black">3</text>
<rect x="100" y="150" width="50" height="50" stroke="black" stroke-width="2" fill="white" />
<polygon points="112.5,175 137.5,162.5 137.5,187.5" class="arrow" fill="lightgrey" stroke="darkslategrey" stroke-width="2" />
<text x="125" y="175" font-size="24" font-family="sans-serif" text-anchor="middle" alignment-baseline="central" stroke="black" fill="black">4</text>
<rect x="150" y="150" width="50" height="50" stroke="black" stroke-width="2" fill="white" />
<circle cx="175" cy="175" r="10" stroke-width="3" stroke="red" fill="none" />
<rect x="200" y="150" width="50" height="50" stroke="black" stroke-width="2" fill="white" />
<polygon points="237.5,175 212.5,162.5 212.5,187.5" class="arrow" fill="lightgrey" stroke="darkslategrey" stroke-width="2" />
<text x="225" y="175" font-size="24" font-family="sans-serif" text-anchor="middle" alignment-baseline="central" stroke="black" fill="black">1</text>

<rect x="0" y="200" width="50" height="50" stroke="black" stroke-width="2" fill="white" />
<polygon points="25,212.5 12.5,237.5 37.5,237.5" class="arrow" fill="lightgrey" stroke="darkslategrey" stroke-width="2" />
<text x="25" y="225" font-size="24" font-family="sans-serif" text-anchor="middle" alignment-baseline="central" stroke="black" fill="black">1</text>
<rect x="50" y="200" width="50" height="50" stroke="black" stroke-width="2" fill="white" />
<polygon points="75,212.5 62.5,237.5 87.5,237.5" class="arrow" fill="lightgrey" stroke="darkslategrey" stroke-width="2" />
<text x="75" y="225" font-size="24" font-family="sans-serif" text-anchor="middle" alignment-baseline="central" stroke="black" fill="black">2</text>
<rect x="100" y="200" width="50" height="50" stroke="black" stroke-width="2" fill="white" />
<polygon points="112.5,225 137.5,212.5 137.5,237.5" class="arrow" fill="lightgrey" stroke="darkslategrey" stroke-width="2" />
<text x="125" y="225" font-size="24" font-family="sans-serif" text-anchor="middle" alignment-baseline="central" stroke="black" fill="black">5</text>
<rect x="150" y="200" width="50" height="50" stroke="black" stroke-width="2" fill="white" />
<polygon points="187.5,225 162.5,212.5 162.5,237.5" class="arrow" fill="lightgrey" stroke="darkslategrey" stroke-width="2" />
<text x="175" y="225" font-size="24" font-family="sans-serif" text-anchor="middle" alignment-baseline="central" stroke="black" fill="black">1</text>
<rect x="200" y="200" width="50" height="50" stroke="black" stroke-width="2" fill="white" />
<polygon points="225,237.5 212.5,212.5 237.5,212.5" class="arrow" fill="lightgrey" stroke="darkslategrey" stroke-width="2" />
<text x="225" y="225" font-size="24" font-family="sans-serif" text-anchor="middle" alignment-baseline="central" stroke="black" fill="black">1</text>

</svg>