<svg viewBox="0 0 150 150" xmlns="http://www.w3.org/2000/svg">
<defs><link rel="stylesheet" href="grid.css" /></defs>
<rect x="0" y="0" width="50" height="50" stroke="black" stroke-width="2" fill="white" />
<polygon points="37.5,25 12.5,12.5 12.5,37.5" class="arrow" fill="lightgrey" stroke="darkslategrey" stroke-width="2" />
<text x="25" y="25" font-size="24" font-family="sans-serif" text-anchor="middle" alignment-baseline="central" stroke="black" fill="black">1</text>
<rect x="50" y="0" width="50" height="50" stroke="black" stroke-width="2" fill="white" />
<polygon points="62.5,25 87.5,12.5 87.5,37.5" class="arrow" fill="lightgrey" stroke="darkslategrey" stroke-width="2" />
<text x="75" y="25" font-size="24" font-family="sans-serif" text-anchor="middle" alignment-baseline="central" stroke="black" fill="black">1</text>
<rect x="100" y="0" width="50" height="50" stroke="black" stroke-width="2" fill="white" />
<polygon points="125,12.5 112.5,37.5 137.5,37.5" class="arrow" fill="lightgrey" stroke="darkslategrey" stroke-width="2" />
<text x="125" y="25" font-size="24" font-family="sans-serif" text-anchor="middle" alignment-baseline="central" stroke="black" fill="black">3</text>

<rect x="0" y="50" width="50" height="50" stroke="black" stroke-width="2" fill="white" />
<polygon points="25,62.5 12.5,87.5 37.5,87.5" class="arrow" fill="lightgrey" stroke="darkslategrey" stroke-width="2" />
<text x="25" y="75" font-size="24" font-family="sans-serif" text-anchor="middle" alignment-baseline="central" stroke="black" fill="black">1</text>
<rect x="50" y="50" width="50" height="50" stroke="black" stroke-width="2" fill="white" />
<circle cx="75" cy="75" r="10" stroke-width="3" stroke="red" fill="none" />
<rect x="100" y="50" width="50" height="50" stroke="black" stroke-width="2" fill="white" />
<polygon points="112.5,75 137.5,62.5 137.5,87.5" class="arrow" fill="lightgrey" stroke="darkslategrey" stroke-width="2" />
<text x="125" y="75" font-size="24" font-family="sans-serif" text-anchor="middle" alignment-baseline="central" stroke="black" fill="black">1</text>

<rect x="0" y="100" width="50" height="50" stroke="black" stroke-width="2" fill="white" />
<polygon points="37.5,125 12.5,112.5 12.5,137.5" class="arrow" fill="lightgrey" stroke="darkslategrey" stroke-width="2" />
<text x="25" y="125" font-size="24" font-family="sans-serif" text-anchor="middle" alignment-baseline="central" stroke="black" fill="black">1</text>
<rect x="50" y="100" width="50" height="50" stroke="black" stroke-width="2" fill="white" />
<polygon points="62.5,125 87.5,112.5 87.5,137.5" class="arrow" fill="lightgrey" stroke="darkslategrey" stroke-width="2" />
<text x="75" y="125" font-size="24" font-family="sans-serif" text-anchor="middle" alignment-baseline="central" stroke="black" fill="black">3</text>
<rect x="100" y="100" width="50" height="50" stroke="black" stroke-width="2" fill="white" />
<polygon points="137.5,125 112.5,112.5 112.5,137.5" class="arrow" fill="lightgrey" stroke="darkslategrey" stroke-width="2" />
<text x="125" y="125" font-size="24" font-family="sans-serif" text-anchor="middle" alignment-baseline="central" stroke="black" fill="black">1</text>

</svg>