<svg viewBox="0 0 500 500" xmlns="http://www.w3.org/2000/svg">
<defs><link rel="stylesheet" href="grid.css" /></defs>
<rect x="0" y="0" width="50" height="50" stroke="black" stroke-width="2" fill="white" />
<polygon points="25,37.5 12.5,12.5 37.5,12.5" class="arrow" fill="lightgrey" stroke="darkslategrey" stroke-width="2" />
<text x="25" y="25" font-size="24" font-family="sans-serif" text-anchor="middle" alignment-baseline="central" stroke="black" fill="black">5</text>
<rect x="50" y="0" width="50" height="50" stroke="black" stroke-width="2" fill="white" />
<polygon points="75,12.5 62.5,37.5 87.5,37.5" class="arrow" fill="lightgrey" stroke="darkslategrey" stroke-width="2" />
<text x="75" y="25" font-size="24" font-family="sans-serif" text-anchor="middle" alignment-baseline="central" stroke="black" fill="black">2</text>
<rect x="100" y="0" width="50" height="50" stroke="black" stroke-width="2" fill="white" />
<polygon points="137.5,25 112.5,12.5 112.5,37.5" class="arrow" fill="lightgrey" stroke="darkslategrey" stroke-width="2" />
<text x="125" y="25" font-size="24" font-family="sans-serif" text-anchor="middle" alignment-baseline="central" stroke="black" fill="black">5</text>
<rect x="150" y="0" width="50" height="50" stroke="black" stroke-width="2" fill="white" />
<polygon points="175,37.5 162.5,12.5 187.5,12.5" class="arrow" fill="lightgrey" stroke="darkslategrey" stroke-width="2" />
<text x="175" y="25" font-size="24" font-family="sans-serif" text-anchor="middle" alignment-baseline="central" stroke="black" fill="black">4</text>
<rect x="200" y="0" width="50" height="50" stroke="black" stroke-width="2" fill="white" />
<polygon points="225,12.5 212.5,37.5 237.5,37.5" class="arrow" fill="lightgrey" stroke="darkslategrey" stroke-width="2" />
<text x="225" y="25" font-size="24" font-family="sans-serif" text-anchor="middle" alignment-baseline="central" stroke="black" fill="black">5</text>
<rect x="250" y="0" width="50" height="50" stroke="black" stroke-width="2" fill="white" />
<polygon points="287.5,25 262.5,12.5 262.5,37.5" class="arrow" fill="lightgrey" stroke="darkslategrey" stroke-width="2" />
<text x="275" y="25" font-size="24" font-family="sans-serif" text-anchor="middle" alignment-baseline="central" stroke="black" fill="black">4</text>
<rect x="300" y="0" width="50" height="50" stroke="black" stroke-width="2" fill="white" />
<polygon points="337.5,25 312.5,12.5 312.5,37.5" class="arrow" fill="lightgrey" stroke="darkslategrey" stroke-width="2" />
<text x="325" y="25" font-size="24" font-family="sans-serif" text-anchor="middle" alignment-baseline="central" stroke="black" fill="black">7</text>
<rect x="350" y="0" width="50" height="50" stroke="black" stroke-width="2" fill="white" />
<polygon points="362.5,25 387.5,12.5 387.5,37.5" class="arrow" fill="lightgrey" stroke="darkslategrey" stroke-width="2" />
<text x="375" y="25" font-size="24" font-family="sans-serif" text-anchor="middle" alignment-baseline="central" stroke="black" fill="black">1</text>
<rect x="400" y="0" width="50" height="50" stroke="black" stroke-width="2" fill="white" />
<polygon points="412.5,25 437.5,12.5 437.5,37.5" class="arrow" fill="lightgrey" stroke="darkslategrey" stroke-width="2" />
<text x="425" y="25" font-size="24" font-family="sans-serif" text-anchor="middle" alignment-baseline="central" stroke="black" fill="black">1</text>
<rect x="450" y="0" width="50" height="50" stroke="black" stroke-width="2" fill="white" />
<polygon points="475,12.5 462.5,37.5 487.5,37.5" class="arrow" fill="lightgrey" stroke="darkslategrey" stroke-width="2" />
<text x="475" y="25" font-size="24" font-family="sans-serif" text-anchor="middle" alignment-baseline="central" stroke="black" fill="black">10</text>

<rect x="0" y="50" width="50" height="50" stroke="black" stroke-width="2" fill="white" />
<polygon points="25,62.5 12.5,87.5 37.5,87.5" class="arrow" fill="lightgrey" stroke="darkslategrey" stroke-width="2" />
<text x="25" y="75" font-size="24" font-family="sans-serif" text-anchor="middle" alignment-baseline="central" stroke="black" fill="black">1</text>
<rect x="50" y="50" width="50" height="50" stroke="black" stroke-width="2" fill="white" />
<polygon points="62.5,75 87.5,62.5 87.5,87.5" class="arrow" fill="lightgrey" stroke="darkslategrey" stroke-width="2" />
<text x="75" y="75" font-size="24" font-family="sans-serif" text-anchor="middle" alignment-baseline="central" stroke="black" fill="black">2</text>
<rect x="100" y="50" width="50" height="50" stroke="black" stroke-width="2" fill="white" />
<polygon points="125,62.5 112.5,87.5 137.5,87.5" class="arrow" fill="lightgrey" stroke="darkslategrey" stroke-width="2" />
<text x="125" y="75" font-size="24" font-family="sans-serif" text-anchor="middle" alignment-baseline="central" stroke="black" fill="black">3</text>
<rect x="150" y="50" width="50" height="50" stroke="black" stroke-width="2" fill="white" />
<polygon points="162.5,75 187.5,62.5 187.5,87.5" class="arrow" fill="lightgrey" stroke="darkslategrey" stroke-width="2" />
<text x="175" y="75" font-size="24" font-family="sans-serif" text-anchor="middle" alignment-baseline="central" stroke="black" fill="black">2</text>
<rect x="200" y="50" width="50" height="50" stroke="black" stroke-width="2" fill="white" />
<polygon points="225,87.5 212.5,62.5 237.5,62.5" class="arrow" fill="lightgrey" stroke="darkslategrey" stroke-width="2" />
<text x="225" y="75" font-size="24" font-family="sans-serif" text-anchor="middle" alignment-baseline="central" stroke="black" fill="black">4</text>
<rect x="250" y="50" width="50" height="50" stroke="black" stroke-width="2" fill="white" />
<polygon points="287.5,75 262.5,62.5 262.5,87.5" class="arrow" fill="lightgrey" stroke="darkslategrey" stroke-width="2" />
<text x="275" y="75" font-size="24" font-family="sans-serif" text-anchor="middle" alignment-baseline="central" stroke="black" fill="black">7</text>
<rect x="300" y="50" width="50" height="50" stroke="black" stroke-width="2" fill="white" />
<polygon points="337.5,75 312.5,62.5 312.5,87.5" class="arrow" fill="lightgrey" stroke="darkslategrey" stroke-width="2" />
<text x="325" y="75" font-size="24" font-family="sans-serif" text-anchor="middle" alignment-baseline="central" stroke="black" fill="black">8</text>
<rect x="350" y="50" width="50" height="50" stroke="black" stroke-width="2" fill="white" />
<polygon points="362.5,75 387.5,62.5 387.5,87.5" class="arrow" fill="lightgrey" stroke="darkslategrey" stroke-width="2" />
<text x="375" y="75" font-size="24" font-family="sans-serif" text-anchor="middle" alignment-baseline="central" stroke="black" fill="black">2</text>
<rect x="400" y="50" width="50" height="50" stroke="black" stroke-width="2" fill="white" />
<polygon points="425,87.5 412.5,62.5 437.5,62.5" class="arrow" fill="lightgrey" stroke="darkslategrey" stroke-width="2" />
<text x="425" y="75" font-size="24" font-family="sans-serif" text-anchor="middle" alignment-baseline="central" stroke="black" fill="black">1</text>
<rect x="450" y="50" width="50" height="50" stroke="black" stroke-width="2" fill="white" />
<polygon points="475,87.5 462.5,62.5 487.5,62.5" class="arrow" fill="lightgrey" stroke="darkslategrey" stroke-width="2" />
<text x="475" y="75" font-size="24" font-family="sans-serif" text-anchor="middle" alignment-baseline="central" stroke="black" fill="black">1</text>

<rect x="0" y="100" width="50" height="50" stroke="black" stroke-width="2" fill="white" />
<polygon points="37.5,125 12.5,112.5 12.5,137.5" class="arrow" fill="lightgrey" stroke="darkslategrey" stroke-width="2" />
<text x="25" y="125" font-size="24" font-family="sans-serif" text-anchor="middle" alignment-baseline="central" stroke="black" fill="black">7</text>
<rect x="50" y="100" width="50" height="50" stroke="black" stroke-width="2" fill="white" />
<polygon points="75,137.5 62.5,112.5 87.5,112.5" class="arrow" fill="lightgrey" stroke="darkslategrey" stroke-width="2" />
<text x="75" y="125" font-size="24" font-family="sans-serif" text-anchor="middle" alignment-baseline="central" stroke="black" fill="black">7</text>
<rect x="100" y="100" width="50" height="50" stroke="black" stroke-width="2" fill="white" />
<polygon points="125,137.5 112.5,112.5 137.5,112.5" class="arrow" fill="lightgrey" stroke="darkslategrey" stroke-width="2" />
<text x="125" y="125" font-size="24" font-family="sans-serif" text-anchor="middle" alignment-baseline="central" stroke="black" fill="black">6</text>
<rect x="150" y="100" width="50" height="50" stroke="black" stroke-width="2" fill="white" />
<polygon points="175,112.5 162.5,137.5 187.5,137.5" class="arrow" fill="lightgrey" stroke="darkslategrey" stroke-width="2" />
<text x="175" y="125" font-size="24" font-family="sans-serif" text-anchor="middle" alignment-baseline="central" stroke="black" fill="black">4</text>
<rect x="200" y="100" width="50" height="50" stroke="black" stroke-width="2" fill="white" />
<polygon points="237.5,125 212.5,112.5 212.5,137.5" class="arrow" fill="lightgrey" stroke="darkslategrey" stroke-width="2" />
<text x="225" y="125" font-size="24" font-family="sans-serif" text-anchor="middle" alignment-baseline="central" stroke="black" fill="black">1</text>
<rect x="250" y="100" width="50" height="50" stroke="black" stroke-width="2" fill="white" />
<polygon points="287.5,125 262.5,112.5 262.5,137.5" class="arrow" fill="lightgrey" stroke="darkslategrey" stroke-width="2" />
<text x="275" y="125" font-size="24" font-family="sans-serif" text-anchor="middle" alignment-baseline="central" stroke="black" fill="black">6</text>
<rect x="300" y="100" width="50" height="50" stroke="black" stroke-width="2" fill="white" />
<polygon points="325,112.5 312.5,137.5 337.5,137.5" class="arrow" fill="lightgrey" stroke="darkslategrey" stroke-width="2" />
<text x="325" y="125" font-size="24" font-family="sans-serif" text-anchor="middle" alignment-baseline="central" stroke="black" fill="black">7</text>
<rect x="350" y="100" width="50" height="50" stroke="black" stroke-width="2" fill="white" />
<polygon points="362.5,125 387.5,112.5 387.5,137.5" class="arrow" fill="lightgrey" stroke="darkslategrey" stroke-width="2" />
<text x="375" y="125" font-size="24" font-family="sans-serif" text-anchor="middle" alignment-baseline="central" stroke="black" fill="black">3</text>
<rect x="400" y="100" width="50" height="50" stroke="black" stroke-width="2" fill="white" />
<polygon points="412.5,125 437.5,112.5 437.5,137.5" class="arrow" fill="lightgrey" stroke="darkslategrey" stroke-width="2" />
<text x="425" y="125" font-size="24" font-family="sans-serif" text-anchor="middle" alignment-baseline="central" stroke="black" fill="black">3</text>
<rect x="450" y="100" width="50" height="50" stroke="black" stroke-width="2" fill="white" />
<polygon points="487.5,125 462.5,112.5 462.5,137.5" class="arrow" fill="lightgrey" stroke="darkslategrey" stroke-width="2" />
<text x="475" y="125" font-size="24" font-family="sans-serif" text-anchor="middle" alignment-baseline="central" stroke="black" fill="black">5</text>

<rect x="0" y="150" width="50" height="50" stroke="black" stroke-width="2" fill="white" />
<polygon points="25,187.5 12.5,162.5 37.5,162.5" class="arrow" fill="lightgrey" stroke="darkslategrey" stroke-width="2" />
<text x="25" y="175" font-size="24" font-family="sans-serif" text-anchor="middle" alignment-baseline="central" stroke="black" fill="black">6</text>
<rect x="50" y="150" width="50" height="50" stroke="black" stroke-width="2" fill="white" />
<polygon points="87.5,175 62.5,162.5 62.5,187.5" class="arrow" fill="lightgrey" stroke="darkslategrey" stroke-width="2" />
<text x="75" y="175" font-size="24" font-family="sans-serif" text-anchor="middle" alignment-baseline="central" stroke="black" fill="black">5</text>
<rect x="100" y="150" width="50" height="50" stroke="black" stroke-width="2" fill="white" />
<polygon points="125,162.5 112.5,187.5 137.5,187.5" class="arrow" fill="lightgrey" stroke="darkslategrey" stroke-width="2" />
<text x="125" y="175" font-size="24" font-family="sans-serif" text-anchor="middle" alignment-baseline="central" stroke="black" fill="black">3</text>
<rect x="150" y="150" width="50" height="50" stroke="black" stroke-width="2" fill="white" />
<polygon points="175,187.5 162.5,162.5 187.5,162.5" class="arrow" fill="lightgrey" stroke="darkslategrey" stroke-width="2" />
<text x="175" y="175" font-size="24" font-family="sans-serif" text-anchor="middle" alignment-baseline="central" stroke="black" fill="black">2</text>
<rect x="200" y="150" width="50" height="50" stroke="black" stroke-width="2" fill="white" />
<polygon points="212.5,175 237.5,162.5 237.5,187.5" class="arrow" fill="lightgrey" stroke="darkslategrey" stroke-width="2" />
<text x="225" y="175" font-size="24" font-family="sans-serif" text-anchor="middle" alignment-baseline="central" stroke="black" fill="black">4</text>
<rect x="250" y="150" width="50" height="50" stroke="black" stroke-width="2" fill="white" />
<polygon points="275,187.5 262.5,162.5 287.5,162.5" class="arrow" fill="lightgrey" stroke="darkslategrey" stroke-width="2" />
<text x="275" y="175" font-size="24" font-family="sans-serif" text-anchor="middle" alignment-baseline="central" stroke="black" fill="black">4</text>
<rect x="300" y="150" width="50" height="50" stroke="black" stroke-width="2" fill="white" />
<polygon points="325,162.5 312.5,187.5 337.5,187.5" class="arrow" fill="lightgrey" stroke="darkslategrey" stroke-width="2" />
<text x="325" y="175" font-size="24" font-family="sans-serif" text-anchor="middle" alignment-baseline="central" stroke="black" fill="black">7</text>
<rect x="350" y="150" width="50" height="50" stroke="black" stroke-width="2" fill="white" />
<polygon points="387.5,175 362.5,162.5 362.5,187.5" class="arrow" fill="lightgrey" stroke="darkslategrey" stroke-width="2" />
<text x="375" y="175" font-size="24" font-family="sans-serif" text-anchor="middle" alignment-baseline="central" stroke="black" fill="black">6</text>
<rect x="400" y="150" width="50" height="50" stroke="black" stroke-width="2" fill="white" />
<polygon points="437.5,175 412.5,162.5 412.5,187.5" class="arrow" fill="lightgrey" stroke="darkslategrey" stroke-width="2" />
<text x="425" y="175" font-size="24" font-family="sans-serif" text-anchor="middle" alignment-baseline="central" stroke="black" fill="black">6</text>
<rect x="450" y="150" width="50" height="50" stroke="black" stroke-width="2" fill="white" />
<polygon points="487.5,175 462.5,162.5 462.5,187.5" class="arrow" fill="lightgrey" stroke="darkslategrey" stroke-width="2" />
<text x="475" y="175" font-size="24" font-family="sans-serif" text-anchor="middle" alignment-baseline="central" stroke="black" fill="black">6</text>

<rect x="0" y="200" width="50" height="50" stroke="black" stroke-width="2" fill="white" />
<polygon points="37.5,225 12.5,212.5 12.5,237.5" class="arrow" fill="lightgrey" stroke="darkslategrey" stroke-width="2" />
<text x="25" y="225" font-size="24" font-family="sans-serif" text-anchor="middle" alignment-baseline="central" stroke="black" fill="black">5</text>
<rect x="50" y="200" width="50" height="50" stroke="black" stroke-width="2" fill="white" />
<polygon points="75,212.5 62.5,237.5 87.5,237.5" class="arrow" fill="lightgrey" stroke="darkslategrey" stroke-width="2" />
<text x="75" y="225" font-size="24" font-family="sans-serif" text-anchor="middle" alignment-baseline="central" stroke="black" fill="black">2</text>
<rect x="100" y="200" width="50" height="50" stroke="black" stroke-width="2" fill="white" />
<polygon points="125,212.5 112.5,237.5 137.5,237.5" class="arrow" fill="lightgrey" stroke="darkslategrey" stroke-width="2" />
<text x="125" y="225" font-size="24" font-family="sans-serif" text-anchor="middle" alignment-baseline="central" stroke="black" fill="black">3</text>
<rect x="150" y="200" width="50" height="50" stroke="black" stroke-width="2" fill="white" />
<polygon points="175,237.5 162.5,212.5 187.5,212.5" class="arrow" fill="lightgrey" stroke="darkslategrey" stroke-width="2" />
<text x="175" y="225" font-size="24" font-family="sans-serif" text-anchor="middle" alignment-baseline="central" stroke="black" fill="black">5</text>
<rect x="200" y="200" width="50" height="50" stroke="black" stroke-width="2" fill="white" />
<polygon points="225,212.5 212.5,237.5 237.5,237.5" class="arrow" fill="lightgrey" stroke="darkslategrey" stroke-width="2" />
<text x="225" y="225" font-size="24" font-family="sans-serif" text-anchor="middle" alignment-baseline="central" stroke="black" fill="black">5</text>
<rect x="250" y="200" width="50" height="50" stroke="black" stroke-width="2" fill="white" />
<polygon points="275,237.5 262.5,212.5 287.5,212.5" class="arrow" fill="lightgrey" stroke="darkslategrey" stroke-width="2" />
<text x="275" y="225" font-size="24" font-family="sans-serif" text-anchor="middle" alignment-baseline="central" stroke="black" fill="black">1</text>
<rect x="300" y="200" width="50" height="50" stroke="black" stroke-width="2" fill="white" />
<polygon points="337.5,225 312.5,212.5 312.5,237.5" class="arrow" fill="lightgrey" stroke="darkslategrey" stroke-width="2" />
<text x="325" y="225" font-size="24" font-family="sans-serif" text-anchor="middle" alignment-baseline="central" stroke="black" fill="black">2</text>
<rect x="350" y="200" width="50" height="50" stroke="black" stroke-width="2" fill="white" />
<polygon points="387.5,225 362.5,212.5 362.5,237.5" class="arrow" fill="lightgrey" stroke="darkslategrey" stroke-width="2" />
<text x="375" y="225" font-size="24" font-family="sans-serif" text-anchor="middle" alignment-baseline="central" stroke="black" fill="black">4</text>
<rect x="400" y="200" width="50" height="50" stroke="black" stroke-width="2" fill="white" />
<polygon points="425,237.5 412.5,212.5 437.5,212.5" class="arrow" fill="lightgrey" stroke="darkslategrey" stroke-width="2" />
<text x="425" y="225" font-size="24" font-family="sans-serif" text-anchor="middle" alignment-baseline="central" stroke="black" fill="black">1</text>
<rect x="450" y="200" width="50" height="50" stroke="black" stroke-width="2" fill="white" />
<polygon points="475,212.5 462.5,237.5 487.5,237.5" class="arrow" fill="lightgrey" stroke="darkslategrey" stroke-width="2" />
<text x="475" y="225" font-size="24" font-family="sans-serif" text-anchor="middle" alignment-baseline="central" stroke="black" fill="black">10</text>

<rect x="0" y="250" width="50" height="50" stroke="black" stroke-width="2" fill="white" />
<polygon points="25,262.5 12.5,287.5 37.5,287.5" class="arrow" fill="lightgrey" stroke="darkslategrey" stroke-width="2" />
<text x="25" y="275" font-size="24" font-family="sans-serif" text-anchor="middle" alignment-baseline="central" stroke="black" fill="black">1</text>
<rect x="50" y="250" width="50" height="50" stroke="black" stroke-width="2" fill="white" />
<polygon points="75,287.5 62.5,262.5 87.5,262.5" class="arrow" fill="lightgrey" stroke="darkslategrey" stroke-width="2" />
<text x="75" y="275" font-size="24" font-family="sans-serif" text-anchor="middle" alignment-baseline="central" stroke="black" fill="black">4</text>
<rect x="100" y="250" width="50" height="50" stroke="black" stroke-width="2" fill="white" />
<polygon points="112.5,275 137.5,262.5 137.5,287.5" class="arrow" fill="lightgrey" stroke="darkslategrey" stroke-width="2" />
<text x="125" y="275" font-size="24" font-family="sans-serif" text-anchor="middle" alignment-baseline="central" stroke="black" fill="black">6</text>
<rect x="150" y="250" width="50" height="50" stroke="black" stroke-width="2" fill="white" />
<polygon points="175,287.5 162.5,262.5 187.5,262.5" class="arrow" fill="lightgrey" stroke="darkslategrey" stroke-width="2" />
<text x="175" y="275" font-size="24" font-family="sans-serif" text-anchor="middle" alignment-baseline="central" stroke="black" fill="black">1</text>
<rect x="200" y="250" width="50" height="50" stroke="black" stroke-width="2" fill="white" />
<polygon points="225,262.5 212.5,287.5 237.5,287.5" class="arrow" fill="lightgrey" stroke="darkslategrey" stroke-width="2" />
<text x="225" y="275" font-size="24" font-family="sans-serif" text-anchor="middle" alignment-baseline="central" stroke="black" fill="black">5</text>
<rect x="250" y="250" width="50" height="50" stroke="black" stroke-width="2" fill="white" />
<polygon points="262.5,275 287.5,262.5 287.5,287.5" class="arrow" fill="lightgrey" stroke="darkslategrey" stroke-width="2" />
<text x="275" y="275" font-size="24" font-family="sans-serif" text-anchor="middle" alignment-baseline="central" stroke="black" fill="black">6</text>
<rect x="300" y="250" width="50" height="50" stroke="black" stroke-width="2" fill="white" />
<polygon points="312.5,275 337.5,262.5 337.5,287.5" class="arrow" fill="lightgrey" stroke="darkslategrey" stroke-width="2" />
<text x="325" y="275" font-size="24" font-family="sans-serif" text-anchor="middle" alignment-baseline="central" stroke="black" fill="black">6</text>
<rect x="350" y="250" width="50" height="50" stroke="black" stroke-width="2" fill="white" />
<polygon points="362.5,275 387.5,262.5 387.5,287.5" class="arrow" fill="lightgrey" stroke="darkslategrey" stroke-width="2" />
<text x="375" y="275" font-size="24" font-family="sans-serif" text-anchor="middle" alignment-baseline="central" stroke="black" fill="black">6</text>
<rect x="400" y="250" width="50" height="50" stroke="black" stroke-width="2" fill="white" />
<polygon points="437.5,275 412.5,262.5 412.5,287.5" class="arrow" fill="lightgrey" stroke="darkslategrey" stroke-width="2" />
<text x="425" y="275" font-size="24" font-family="sans-serif" text-anchor="middle" alignment-baseline="central" stroke="black" fill="black">1</text>
<rect x="450" y="250" width="50" height="50" stroke="black" stroke-width="2" fill="white" />
<polygon points="475,262.5 462.5,287.5 487.5,287.5" class="arrow" fill="lightgrey" stroke="darkslategrey" stroke-width="2" />
<text x="475" y="275" font-size="24" font-family="sans-serif" text-anchor="middle" alignment-baseline="central" stroke="black" fill="black">10</text>

<rect x="0" y="300" width="50" height="50" stroke="black" stroke-width="2" fill="white" />
<polygon points="25,312.5 12.5,337.5 37.5,337.5" class="arrow" fill="lightgrey" stroke="darkslategrey" stroke-width="2" />
<text x="25" y="325" font-size="24" font-family="sans-serif" text-anchor="middle" alignment-baseline="central" stroke="black" fill="black">1</text>
<rect x="50" y="300" width="50" height="50" stroke="black" stroke-width="2" fill="white" />
<polygon points="62.5,325 87.5,312.5 87.5,337.5" class="arrow" fill="lightgrey" stroke="darkslategrey" stroke-width="2" />
<text x="75" y="325" font-size="24" font-family="sans-serif" text-anchor="middle" alignment-baseline="central" stroke="black" fill="black">7</text>
<rect x="100" y="300" width="50" height="50" stroke="black" stroke-width="2" fill="white" />
<polygon points="125,312.5 112.5,337.5 137.5,337.5" class="arrow" fill="lightgrey" stroke="darkslategrey" stroke-width="2" />
<text x="125" y="325" font-size="24" font-family="sans-serif" text-anchor="middle" alignment-baseline="central" stroke="black" fill="black">3</text>
<rect x="150" y="300" width="50" height="50" stroke="black" stroke-width="2" fill="white" />
<polygon points="162.5,325 187.5,312.5 187.5,337.5" class="arrow" fill="lightgrey" stroke="darkslategrey" stroke-width="2" />
<text x="175" y="325" font-size="24" font-family="sans-serif" text-anchor="middle" alignment-baseline="central" stroke="black" fill="black">7</text>
<rect x="200" y="300" width="50" height="50" stroke="black" stroke-width="2" fill="white" />
<polygon points="225,337.5 212.5,312.5 237.5,312.5" class="arrow" fill="lightgrey" stroke="darkslategrey" stroke-width="2" />
<text x="225" y="325" font-size="24" font-family="sans-serif" text-anchor="middle" alignment-baseline="central" stroke="black" fill="black">3</text>
<rect x="250" y="300" width="50" height="50" stroke="black" stroke-width="2" fill="white" />
<polygon points="262.5,325 287.5,312.5 287.5,337.5" class="arrow" fill="lightgrey" stroke="darkslategrey" stroke-width="2" />
<text x="275" y="325" font-size="24" font-family="sans-serif" text-anchor="middle" alignment-baseline="central" stroke="black" fill="black">7</text>
<rect x="300" y="300" width="50" height="50" stroke="black" stroke-width="2" fill="white" />
<polygon points="325,312.5 312.5,337.5 337.5,337.5" class="arrow" fill="lightgrey" stroke="darkslategrey" stroke-width="2" />
<text x="325" y="325" font-size="24" font-family="sans-serif" text-anchor="middle" alignment-baseline="central" stroke="black" fill="black">7</text>
<rect x="350" y="300" width="50" height="50" stroke="black" stroke-width="2" fill="white" />
<polygon points="362.5,325 387.5,312.5 387.5,337.5" class="arrow" fill="lightgrey" stroke="darkslategrey" stroke-width="2" />
<text x="375" y="325" font-size="24" font-family="sans-serif" text-anchor="middle" alignment-baseline="central" stroke="black" fill="black">7</text>
<rect x="400" y="300" width="50" height="50" stroke="black" stroke-width="2" fill="white" />
<polygon points="437.5,325 412.5,312.5 412.5,337.5" class="arrow" fill="lightgrey" stroke="darkslategrey" stroke-width="2" />
<text x="425" y="325" font-size="24" font-family="sans-serif" text-anchor="middle" alignment-baseline="central" stroke="black" fill="black">1</text>
<rect x="450" y="300" width="50" height="50" stroke="black" stroke-width="2" fill="white" />
<polygon points="475,312.5 462.5,337.5 487.5,337.5" class="arrow" fill="lightgrey" stroke="darkslategrey" stroke-width="2" />
<text x="475" y="325" font-size="24" font-family="sans-serif" text-anchor="middle" alignment-baseline="central" stroke="black" fill="black">10</text>

<rect x="0" y="350" width="50" height="50" stroke="black" stroke-width="2" fill="white" />
<polygon points="25,387.5 12.5,362.5 37.5,362.5" class="arrow" fill="lightgrey" stroke="darkslategrey" stroke-width="2" />
<text x="25" y="375" font-size="24" font-family="sans-serif" text-anchor="middle" alignment-baseline="central" stroke="black" fill="black">6</text>
<rect x="50" y="350" width="50" height="50" stroke="black" stroke-width="2" fill="white" />
<polygon points="75,387.5 62.5,362.5 87.5,362.5" class="arrow" fill="lightgrey" stroke="darkslategrey" stroke-width="2" />
<text x="75" y="375" font-size="24" font-family="sans-serif" text-anchor="middle" alignment-baseline="central" stroke="black" fill="black">1</text>
<rect x="100" y="350" width="50" height="50" stroke="black" stroke-width="2" fill="white" />
<polygon points="112.5,375 137.5,362.5 137.5,387.5" class="arrow" fill="lightgrey" stroke="darkslategrey" stroke-width="2" />
<text x="125" y="375" font-size="24" font-family="sans-serif" text-anchor="middle" alignment-baseline="central" stroke="black" fill="black">8</text>
<rect x="150" y="350" width="50" height="50" stroke="black" stroke-width="2" fill="white" />
<polygon points="175,387.5 162.5,362.5 187.5,362.5" class="arrow" fill="lightgrey" stroke="darkslategrey" stroke-width="2" />
<text x="175" y="375" font-size="24" font-family="sans-serif" text-anchor="middle" alignment-baseline="central" stroke="black" fill="black">2</text>
<rect x="200" y="350" width="50" height="50" stroke="black" stroke-width="2" fill="white" />
<polygon points="237.5,375 212.5,362.5 212.5,387.5" class="arrow" fill="lightgrey" stroke="darkslategrey" stroke-width="2" />
<text x="225" y="375" font-size="24" font-family="sans-serif" text-anchor="middle" alignment-baseline="central" stroke="black" fill="black">2</text>
<rect x="250" y="350" width="50" height="50" stroke="black" stroke-width="2" fill="white" />
<polygon points="275,387.5 262.5,362.5 287.5,362.5" class="arrow" fill="lightgrey" stroke="darkslategrey" stroke-width="2" />
<text x="275" y="375" font-size="24" font-family="sans-serif" text-anchor="middle" alignment-baseline="central" stroke="black" fill="black">3</text>
<rect x="300" y="350" width="50" height="50" stroke="black" stroke-width="2" fill="white" />
<polygon points="312.5,375 337.5,362.5 337.5,387.5" class="arrow" fill="lightgrey" stroke="darkslategrey" stroke-width="2" />
<text x="325" y="375" font-size="24" font-family="sans-serif" text-anchor="middle" alignment-baseline="central" stroke="black" fill="black">8</text>
<rect x="350" y="350" width="50" height="50" stroke="black" stroke-width="2" fill="white" />
<polygon points="362.5,375 387.5,362.5 387.5,387.5" class="arrow" fill="lightgrey" stroke="darkslategrey" stroke-width="2" />
<text x="375" y="375" font-size="24" font-family="sans-serif" text-anchor="middle" alignment-baseline="central" stroke="black" fill="black">8</text>
<rect x="400" y="350" width="50" height="50" stroke="black" stroke-width="2" fill="white" />
<polygon points="425,387.5 412.5,362.5 437.5,362.5" class="arrow" fill="lightgrey" stroke="darkslategrey" stroke-width="2" />
<text x="425" y="375" font-size="24" font-family="sans-serif" text-anchor="middle" alignment-baseline="central" stroke="black" fill="black">1</text>
<rect x="450" y="350" width="50" height="50" stroke="black" stroke-width="2" fill="white" />
<polygon points="462.5,375 487.5,362.5 487.5,387.5" class="arrow" fill="lightgrey" stroke="darkslategrey" stroke-width="2" />
<text x="475" y="375" font-size="24" font-family="sans-serif" text-anchor="middle" alignment-baseline="central" stroke="black" fill="black">8</text>

<rect x="0" y="400" width="50" height="50" stroke="black" stroke-width="2" fill="white" />
<polygon points="25,412.5 12.5,437.5 37.5,437.5" class="arrow" fill="lightgrey" stroke="darkslategrey" stroke-width="2" />
<text x="25" y="425" font-size="24" font-family="sans-serif" text-anchor="middle" alignment-baseline="central" stroke="black" fill="black">1</text>
<rect x="50" y="400" width="50" height="50" stroke="black" stroke-width="2" fill="white" />
<polygon points="75,437.5 62.5,412.5 87.5,412.5" class="arrow" fill="lightgrey" stroke="darkslategrey" stroke-width="2" />
<text x="75" y="425" font-size="24" font-family="sans-serif" text-anchor="middle" alignment-baseline="central" stroke="black" fill="black">1</text>
<rect x="100" y="400" width="50" height="50" stroke="black" stroke-width="2" fill="white" />
<polygon points="125,437.5 112.5,412.5 137.5,412.5" class="arrow" fill="lightgrey" stroke="darkslategrey" stroke-width="2" />
<text x="125" y="425" font-size="24" font-family="sans-serif" text-anchor="middle" alignment-baseline="central" stroke="black" fill="black">5</text>
<rect x="150" y="400" width="50" height="50" stroke="black" stroke-width="2" fill="white" />
<polygon points="175,437.5 162.5,412.5 187.5,412.5" class="arrow" fill="lightgrey" stroke="darkslategrey" stroke-width="2" />
<text x="175" y="425" font-size="24" font-family="sans-serif" text-anchor="middle" alignment-baseline="central" stroke="black" fill="black">5</text>
<rect x="200" y="400" width="50" height="50" stroke="black" stroke-width="2" fill="white" />
<polygon points="237.5,425 212.5,412.5 212.5,437.5" class="arrow" fill="lightgrey" stroke="darkslategrey" stroke-width="2" />
<text x="225" y="425" font-size="24" font-family="sans-serif" text-anchor="middle" alignment-baseline="central" stroke="black" fill="black">1</text>
<rect x="250" y="400" width="50" height="50" stroke="black" stroke-width="2" fill="white" />
<polygon points="262.5,425 287.5,412.5 287.5,437.5" class="arrow" fill="lightgrey" stroke="darkslategrey" stroke-width="2" />
<text x="275" y="425" font-size="24" font-family="sans-serif" text-anchor="middle" alignment-baseline="central" stroke="black" fill="black">9</text>
<rect x="300" y="400" width="50" height="50" stroke="black" stroke-width="2" fill="white" />
<circle cx="325" cy="425" r="10" stroke-width="3" stroke="red" fill="none" />
<rect x="350" y="400" width="50" height="50" stroke="black" stroke-width="2" fill="white" />
<polygon points="387.5,425 362.5,412.5 362.5,437.5" class="arrow" fill="lightgrey" stroke="darkslategrey" stroke-width="2" />
<text x="375" y="425" font-size="24" font-family="sans-serif" text-anchor="middle" alignment-baseline="central" stroke="black" fill="black">1</text>
<rect x="400" y="400" width="50" height="50" stroke="black" stroke-width="2" fill="white" />
<polygon points="425,437.5 412.5,412.5 437.5,412.5" class="arrow" fill="lightgrey" stroke="darkslategrey" stroke-width="2" />
<text x="425" y="425" font-size="24" font-family="sans-serif" text-anchor="middle" alignment-baseline="central" stroke="black" fill="black">1</text>
<rect x="450" y="400" width="50" height="50" stroke="black" stroke-width="2" fill="white" />
<polygon points="462.5,425 487.5,412.5 487.5,437.5" class="arrow" fill="lightgrey" stroke="darkslategrey" stroke-width="2" />
<text x="475" y="425" font-size="24" font-family="sans-serif" text-anchor="middle" alignment-baseline="central" stroke="black" fill="black">9</text>

<rect x="0" y="450" width="50" height="50" stroke="black" stroke-width="2" fill="white" />
<polygon points="37.5,475 12.5,462.5 12.5,487.5" class="arrow" fill="lightgrey" stroke="darkslategrey" stroke-width="2" />
<text x="25" y="475" font-size="24" font-family="sans-serif" text-anchor="middle" alignment-baseline="central" stroke="black" fill="black">1</text>
<rect x="50" y="450" width="50" height="50" stroke="black" stroke-width="2" fill="white" />
<polygon points="87.5,475 62.5,462.5 62.5,487.5" class="arrow" fill="lightgrey" stroke="darkslategrey" stroke-width="2" />
<text x="75" y="475" font-size="24" font-family="sans-serif" text-anchor="middle" alignment-baseline="central" stroke="black" fill="black">1</text>
<rect x="100" y="450" width="50" height="50" stroke="black" stroke-width="2" fill="white" />
<polygon points="137.5,475 112.5,462.5 112.5,487.5" class="arrow" fill="lightgrey" stroke="darkslategrey" stroke-width="2" />
<text x="125" y="475" font-size="24" font-family="sans-serif" text-anchor="middle" alignment-baseline="central" stroke="black" fill="black">1</text>
<rect x="150" y="450" width="50" height="50" stroke="black" stroke-width="2" fill="white" />
<polygon points="175,487.5 162.5,462.5 187.5,462.5" class="arrow" fill="lightgrey" stroke="darkslategrey" stroke-width="2" />
<text x="175" y="475" font-size="24" font-family="sans-serif" text-anchor="middle" alignment-baseline="central" stroke="black" fill="black">5</text>
<rect x="200" y="450" width="50" height="50" stroke="black" stroke-width="2" fill="white" />
<polygon points="225,462.5 212.5,487.5 237.5,487.5" class="arrow" fill="lightgrey" stroke="darkslategrey" stroke-width="2" />
<text x="225" y="475" font-size="24" font-family="sans-serif" text-anchor="middle" alignment-baseline="central" stroke="black" fill="black">5</text>
<rect x="250" y="450" width="50" height="50" stroke="black" stroke-width="2" fill="white" />
<polygon points="275,462.5 262.5,487.5 287.5,487.5" class="arrow" fill="lightgrey" stroke="darkslategrey" stroke-width="2" />
<text x="275" y="475" font-size="24" font-family="sans-serif" text-anchor="middle" alignment-baseline="central" stroke="black" fill="black">6</text>
<rect x="300" y="450" width="50" height="50" stroke="black" stroke-width="2" fill="white" />
<polygon points="325,487.5 312.5,462.5 337.5,462.5" class="arrow" fill="lightgrey" stroke="darkslategrey" stroke-width="2" />
<text x="325" y="475" font-size="24" font-family="sans-serif" text-anchor="middle" alignment-baseline="central" stroke="black" fill="black">2</text>
<rect x="350" y="450" width="50" height="50" stroke="black" stroke-width="2" fill="white" />
<polygon points="362.5,475 387.5,462.5 387.5,487.5" class="arrow" fill="lightgrey" stroke="darkslategrey" stroke-width="2" />
<text x="375" y="475" font-size="24" font-family="sans-serif" text-anchor="middle" alignment-baseline="central" stroke="black" fill="black">10</text>
<rect x="400" y="450" width="50" height="50" stroke="black" stroke-width="2" fill="white" />
<polygon points="412.5,475 437.5,462.5 437.5,487.5" class="arrow" fill="lightgrey" stroke="darkslategrey" stroke-width="2" />
<text x="425" y="475" font-size="24" font-family="sans-serif" text-anchor="middle" alignment-baseline="central" stroke="black" fill="black">10</text>
<rect x="450" y="450" width="50" height="50" stroke="black" stroke-width="2" fill="white" />
<polygon points="487.5,475 462.5,462.5 462.5,487.5" class="arrow" fill="lightgrey" stroke="darkslategrey" stroke-width="2" />
<text x="475" y="475" font-size="24" font-family="sans-serif" text-anchor="middle" alignment-baseline="central" stroke="black" fill="black">1</text>

</svg>