<svg viewBox="0 0 500 500" xmlns="http://www.w3.org/2000/svg">
<defs><link rel="stylesheet" href="grid.css" /></defs>
<rect x="0" y="0" width="50" height="50" stroke="black" stroke-width="2" fill="white" />
<polygon points="25,12.5 12.5,37.5 37.5,37.5" class="arrow" fill="lightgrey" stroke="darkslategrey" stroke-width="2" />
<text x="25" y="25" font-size="24" font-family="sans-serif" text-anchor="middle" alignment-baseline="central" stroke="black" fill="black">1</text>
<rect x="50" y="0" width="50" height="50" stroke="black" stroke-width="2" fill="white" />
<polygon points="75,12.5 62.5,37.5 87.5,37.5" class="arrow" fill="lightgrey" stroke="darkslategrey" stroke-width="2" />
<text x="75" y="25" font-size="24" font-family="sans-serif" text-anchor="middle" alignment-baseline="central" stroke="black" fill="black">2</text>
<rect x="100" y="0" width="50" height="50" stroke="black" stroke-width="2" fill="white" />
<polygon points="125,37.5 112.5,12.5 137.5,12.5" class="arrow" fill="lightgrey" stroke="darkslategrey" stroke-width="2" />
<text x="125" y="25" font-size="24" font-family="sans-serif" text-anchor="middle" alignment-baseline="central" stroke="black" fill="black">1</text>
<rect x="150" y="0" width="50" height="50" stroke="black" stroke-width="2" fill="white" />
<polygon points="187.5,25 162.5,12.5 162.5,37.5" class="arrow" fill="lightgrey" stroke="darkslategrey" stroke-width="2" />
<text x="175" y="25" font-size="24" font-family="sans-serif" text-anchor="middle" alignment-baseline="central" stroke="black" fill="black">4</text>
<rect x="200" y="0" width="50" height="50" stroke="black" stroke-width="2" fill="white" />
<polygon points="212.5,25 237.5,12.5 237.5,37.5" class="arrow" fill="lightgrey" stroke="darkslategrey" stroke-width="2" />
<text x="225" y="25" font-size="24" font-family="sans-serif" text-anchor="middle" alignment-baseline="central" stroke="black" fill="black">1</text>
<rect x="250" y="0" width="50" height="50" stroke="black" stroke-width="2" fill="white" />
<polygon points="262.5,25 287.5,12.5 287.5,37.5" class="arrow" fill="lightgrey" stroke="darkslategrey" stroke-width="2" />
<text x="275" y="25" font-size="24" font-family="sans-serif" text-anchor="middle" alignment-baseline="central" stroke="black" fill="black">1</text>
<rect x="300" y="0" width="50" height="50" stroke="black" stroke-width="2" fill="white" />
<polygon points="325,12.5 312.5,37.5 337.5,37.5" class="arrow" fill="lightgrey" stroke="darkslategrey" stroke-width="2" />
<text x="325" y="25" font-size="24" font-family="sans-serif" text-anchor="middle" alignment-baseline="central" stroke="black" fill="black">7</text>
<rect x="350" y="0" width="50" height="50" stroke="black" stroke-width="2" fill="white" />
<polygon points="362.5,25 387.5,12.5 387.5,37.5" class="arrow" fill="lightgrey" stroke="darkslategrey" stroke-width="2" />
<text x="375" y="25" font-size="24" font-family="sans-serif" text-anchor="middle" alignment-baseline="central" stroke="black" fill="black">1</text>
<rect x="400" y="0" width="50" height="50" stroke="black" stroke-width="2" fill="white" />
<polygon points="437.5,25 412.5,12.5 412.5,37.5" class="arrow" fill="lightgrey" stroke="darkslategrey" stroke-width="2" />
<text x="425" y="25" font-size="24" font-family="sans-serif" text-anchor="middle" alignment-baseline="central" stroke="black" fill="black">3</text>
<rect x="450" y="0" width="50" height="50" stroke="black" stroke-width="2" fill="white" />
<polygon points="475,37.5 462.5,12.5 487.5,12.5" class="arrow" fill="lightgrey" stroke="darkslategrey" stroke-width="2" />
<text x="475" y="25" font-size="24" font-family="sans-serif" text-anchor="middle" alignment-baseline="central" stroke="black" fill="black">1</text>

<rect x="0" y="50" width="50" height="50" stroke="black" stroke-width="2" fill="white" />
<polygon points="37.5,75 12.5,62.5 12.5,87.5" class="arrow" fill="lightgrey" stroke="darkslategrey" stroke-width="2" />
<text x="25" y="75" font-size="24" font-family="sans-serif" text-anchor="middle" alignment-baseline="central" stroke="black" fill="black">5</text>
<rect x="50" y="50" width="50" height="50" stroke="black" stroke-width="2" fill="white" />
<polygon points="87.5,75 62.5,62.5 62.5,87.5" class="arrow" fill="lightgrey" stroke="darkslategrey" stroke-width="2" />
<text x="75" y="75" font-size="24" font-family="sans-serif" text-anchor="middle" alignment-baseline="central" stroke="black" fill="black">4</text>
<rect x="100" y="50" width="50" height="50" stroke="black" stroke-width="2" fill="white" />
<polygon points="125,62.5 112.5,87.5 137.5,87.5" class="arrow" fill="lightgrey" stroke="darkslategrey" stroke-width="2" />
<text x="125" y="75" font-size="24" font-family="sans-serif" text-anchor="middle" alignment-baseline="central" stroke="black" fill="black">3</text>
<rect x="150" y="50" width="50" height="50" stroke="black" stroke-width="2" fill="white" />
<polygon points="187.5,75 162.5,62.5 162.5,87.5" class="arrow" fill="lightgrey" stroke="darkslategrey" stroke-width="2" />
<text x="175" y="75" font-size="24" font-family="sans-serif" text-anchor="middle" alignment-baseline="central" stroke="black" fill="black">5</text>
<rect x="200" y="50" width="50" height="50" stroke="black" stroke-width="2" fill="white" />
<polygon points="225,62.5 212.5,87.5 237.5,87.5" class="arrow" fill="lightgrey" stroke="darkslategrey" stroke-width="2" />
<text x="225" y="75" font-size="24" font-family="sans-serif" text-anchor="middle" alignment-baseline="central" stroke="black" fill="black">5</text>
<rect x="250" y="50" width="50" height="50" stroke="black" stroke-width="2" fill="white" />
<polygon points="262.5,75 287.5,62.5 287.5,87.5" class="arrow" fill="lightgrey" stroke="darkslategrey" stroke-width="2" />
<text x="275" y="75" font-size="24" font-family="sans-serif" text-anchor="middle" alignment-baseline="central" stroke="black" fill="black">2</text>
<rect x="300" y="50" width="50" height="50" stroke="black" stroke-width="2" fill="white" />
<polygon points="325,87.5 312.5,62.5 337.5,62.5" class="arrow" fill="lightgrey" stroke="darkslategrey" stroke-width="2" />
<text x="325" y="75" font-size="24" font-family="sans-serif" text-anchor="middle" alignment-baseline="central" stroke="black" fill="black">2</text>
<rect x="350" y="50" width="50" height="50" stroke="black" stroke-width="2" fill="white" />
<polygon points="362.5,75 387.5,62.5 387.5,87.5" class="arrow" fill="lightgrey" stroke="darkslategrey" stroke-width="2" />
<text x="375" y="75" font-size="24" font-family="sans-serif" text-anchor="middle" alignment-baseline="central" stroke="black" fill="black">1</text>
<rect x="400" y="50" width="50" height="50" stroke="black" stroke-width="2" fill="white" />
<polygon points="425,87.5 412.5,62.5 437.5,62.5" class="arrow" fill="lightgrey" stroke="darkslategrey" stroke-width="2" />
<text x="425" y="75" font-size="24" font-family="sans-serif" text-anchor="middle" alignment-baseline="central" stroke="black" fill="black">6</text>
<rect x="450" y="50" width="50" height="50" stroke="black" stroke-width="2" fill="white" />
<polygon points="475,87.5 462.5,62.5 487.5,62.5" class="arrow" fill="lightgrey" stroke="darkslategrey" stroke-width="2" />
<text x="475" y="75" font-size="24" font-family="sans-serif" text-anchor="middle" alignment-baseline="central" stroke="black" fill="black">1</text>

<rect x="0" y="100" width="50" height="50" stroke="black" stroke-width="2" fill="white" />
<polygon points="25,137.5 12.5,112.5 37.5,112.5" class="arrow" fill="lightgrey" stroke="darkslategrey" stroke-width="2" />
<text x="25" y="125" font-size="24" font-family="sans-serif" text-anchor="middle" alignment-baseline="central" stroke="black" fill="black">2</text>
<rect x="50" y="100" width="50" height="50" stroke="black" stroke-width="2" fill="white" />
<polygon points="75,137.5 62.5,112.5 87.5,112.5" class="arrow" fill="lightgrey" stroke="darkslategrey" stroke-width="2" />
<text x="75" y="125" font-size="24" font-family="sans-serif" text-anchor="middle" alignment-baseline="central" stroke="black" fill="black">4</text>
<rect x="100" y="100" width="50" height="50" stroke="black" stroke-width="2" fill="white" />
<polygon points="125,112.5 112.5,137.5 137.5,137.5" class="arrow" fill="lightgrey" stroke="darkslategrey" stroke-width="2" />
<text x="125" y="125" font-size="24" font-family="sans-serif" text-anchor="middle" alignment-baseline="central" stroke="black" fill="black">3</text>
<rect x="150" y="100" width="50" height="50" stroke="black" stroke-width="2" fill="white" />
<polygon points="162.5,125 187.5,112.5 187.5,137.5" class="arrow" fill="lightgrey" stroke="darkslategrey" stroke-width="2" />
<text x="175" y="125" font-size="24" font-family="sans-serif" text-anchor="middle" alignment-baseline="central" stroke="black" fill="black">2</text>
<rect x="200" y="100" width="50" height="50" stroke="black" stroke-width="2" fill="white" />
<polygon points="212.5,125 237.5,112.5 237.5,137.5" class="arrow" fill="lightgrey" stroke="darkslategrey" stroke-width="2" />
<text x="225" y="125" font-size="24" font-family="sans-serif" text-anchor="middle" alignment-baseline="central" stroke="black" fill="black">3</text>
<rect x="250" y="100" width="50" height="50" stroke="black" stroke-width="2" fill="white" />
<polygon points="275,137.5 262.5,112.5 287.5,112.5" class="arrow" fill="lightgrey" stroke="darkslategrey" stroke-width="2" />
<text x="275" y="125" font-size="24" font-family="sans-serif" text-anchor="middle" alignment-baseline="central" stroke="black" fill="black">3</text>
<rect x="300" y="100" width="50" height="50" stroke="black" stroke-width="2" fill="white" />
<polygon points="337.5,125 312.5,112.5 312.5,137.5" class="arrow" fill="lightgrey" stroke="darkslategrey" stroke-width="2" />
<text x="325" y="125" font-size="24" font-family="sans-serif" text-anchor="middle" alignment-baseline="central" stroke="black" fill="black">1</text>
<rect x="350" y="100" width="50" height="50" stroke="black" stroke-width="2" fill="white" />
<polygon points="375,137.5 362.5,112.5 387.5,112.5" class="arrow" fill="lightgrey" stroke="darkslategrey" stroke-width="2" />
<text x="375" y="125" font-size="24" font-family="sans-serif" text-anchor="middle" alignment-baseline="central" stroke="black" fill="black">2</text>
<rect x="400" y="100" width="50" height="50" stroke="black" stroke-width="2" fill="white" />
<polygon points="425,112.5 412.5,137.5 437.5,137.5" class="arrow" fill="lightgrey" stroke="darkslategrey" stroke-width="2" />
<text x="425" y="125" font-size="24" font-family="sans-serif" text-anchor="middle" alignment-baseline="central" stroke="black" fill="black">9</text>
<rect x="450" y="100" width="50" height="50" stroke="black" stroke-width="2" fill="white" />
<polygon points="462.5,125 487.5,112.5 487.5,137.5" class="arrow" fill="lightgrey" stroke="darkslategrey" stroke-width="2" />
<text x="475" y="125" font-size="24" font-family="sans-serif" text-anchor="middle" alignment-baseline="central" stroke="black" fill="black">3</text>

<rect x="0" y="150" width="50" height="50" stroke="black" stroke-width="2" fill="white" />
<polygon points="25,187.5 12.5,162.5 37.5,162.5" class="arrow" fill="lightgrey" stroke="darkslategrey" stroke-width="2" />
<text x="25" y="175" font-size="24" font-family="sans-serif" text-anchor="middle" alignment-baseline="central" stroke="black" fill="black">1</text>
<rect x="50" y="150" width="50" height="50" stroke="black" stroke-width="2" fill="white" />
<polygon points="75,187.5 62.5,162.5 87.5,162.5" class="arrow" fill="lightgrey" stroke="darkslategrey" stroke-width="2" />
<text x="75" y="175" font-size="24" font-family="sans-serif" text-anchor="middle" alignment-baseline="central" stroke="black" fill="black">8</text>
<rect x="100" y="150" width="50" height="50" stroke="black" stroke-width="2" fill="white" />
<polygon points="112.5,175 137.5,162.5 137.5,187.5" class="arrow" fill="lightgrey" stroke="darkslategrey" stroke-width="2" />
<text x="125" y="175" font-size="24" font-family="sans-serif" text-anchor="middle" alignment-baseline="central" stroke="black" fill="black">4</text>
<rect x="150" y="150" width="50" height="50" stroke="black" stroke-width="2" fill="white" />
<polygon points="175,187.5 162.5,162.5 187.5,162.5" class="arrow" fill="lightgrey" stroke="darkslategrey" stroke-width="2" />
<text x="175" y="175" font-size="24" font-family="sans-serif" text-anchor="middle" alignment-baseline="central" stroke="black" fill="black">2</text>
<rect x="200" y="150" width="50" height="50" stroke="black" stroke-width="2" fill="white" />
<polygon points="225,162.5 212.5,187.5 237.5,187.5" class="arrow" fill="lightgrey" stroke="darkslategrey" stroke-width="2" />
<text x="225" y="175" font-size="24" font-family="sans-serif" text-anchor="middle" alignment-baseline="central" stroke="black" fill="black">5</text>
<rect x="250" y="150" width="50" height="50" stroke="black" stroke-width="2" fill="white" />
<polygon points="287.5,175 262.5,162.5 262.5,187.5" class="arrow" fill="lightgrey" stroke="darkslategrey" stroke-width="2" />
<text x="275" y="175" font-size="24" font-family="sans-serif" text-anchor="middle" alignment-baseline="central" stroke="black" fill="black">1</text>
<rect x="300" y="150" width="50" height="50" stroke="black" stroke-width="2" fill="white" />
<polygon points="312.5,175 337.5,162.5 337.5,187.5" class="arrow" fill="lightgrey" stroke="darkslategrey" stroke-width="2" />
<text x="325" y="175" font-size="24" font-family="sans-serif" text-anchor="middle" alignment-baseline="central" stroke="black" fill="black">3</text>
<rect x="350" y="150" width="50" height="50" stroke="black" stroke-width="2" fill="white" />
<polygon points="362.5,175 387.5,162.5 387.5,187.5" class="arrow" fill="lightgrey" stroke="darkslategrey" stroke-width="2" />
<text x="375" y="175" font-size="24" font-family="sans-serif" text-anchor="middle" alignment-baseline="central" stroke="black" fill="black">4</text>
<rect x="400" y="150" width="50" height="50" stroke="black" stroke-width="2" fill="white" />
<polygon points="412.5,175 437.5,162.5 437.5,187.5" class="arrow" fill="lightgrey" stroke="darkslategrey" stroke-width="2" />
<text x="425" y="175" font-size="24" font-family="sans-serif" text-anchor="middle" alignment-baseline="central" stroke="black" fill="black">4</text>
<rect x="450" y="150" width="50" height="50" stroke="black" stroke-width="2" fill="white" />
<polygon points="487.5,175 462.5,162.5 462.5,187.5" class="arrow" fill="lightgrey" stroke="darkslategrey" stroke-width="2" />
<text x="475" y="175" font-size="24" font-family="sans-serif" text-anchor="middle" alignment-baseline="central" stroke="black" fill="black">4</text>

<rect x="0" y="200" width="50" height="50" stroke="black" stroke-width="2" fill="white" />
<polygon points="25,212.5 12.5,237.5 37.5,237.5" class="arrow" fill="lightgrey" stroke="darkslategrey" stroke-width="2" />
<text x="25" y="225" font-size="24" font-family="sans-serif" text-anchor="middle" alignment-baseline="central" stroke="black" fill="black">1</text>
<rect x="50" y="200" width="50" height="50" stroke="black" stroke-width="2" fill="white" />
<polygon points="75,212.5 62.5,237.5 87.5,237.5" class="arrow" fill="lightgrey" stroke="darkslategrey" stroke-width="2" />
<text x="75" y="225" font-size="24" font-family="sans-serif" text-anchor="middle" alignment-baseline="central" stroke="black" fill="black">2</text>
<rect x="100" y="200" width="50" height="50" stroke="black" stroke-width="2" fill="white" />
<polygon points="137.5,225 112.5,212.5 112.5,237.5" class="arrow" fill="lightgrey" stroke="darkslategrey" stroke-width="2" />
<text x="125" y="225" font-size="24" font-family="sans-serif" text-anchor="middle" alignment-baseline="central" stroke="black" fill="black">5</text>
<rect x="150" y="200" width="50" height="50" stroke="black" stroke-width="2" fill="white" />
<polygon points="187.5,225 162.5,212.5 162.5,237.5" class="arrow" fill="lightgrey" stroke="darkslategrey" stroke-width="2" />
<text x="175" y="225" font-size="24" font-family="sans-serif" text-anchor="middle" alignment-baseline="central" stroke="black" fill="black">2</text>
<rect x="200" y="200" width="50" height="50" stroke="black" stroke-width="2" fill="white" />
<polygon points="225,237.5 212.5,212.5 237.5,212.5" class="arrow" fill="lightgrey" stroke="darkslategrey" stroke-width="2" />
<text x="225" y="225" font-size="24" font-family="sans-serif" text-anchor="middle" alignment-baseline="central" stroke="black" fill="black">5</text>
<rect x="250" y="200" width="50" height="50" stroke="black" stroke-width="2" fill="white" />
<polygon points="262.5,225 287.5,212.5 287.5,237.5" class="arrow" fill="lightgrey" stroke="darkslategrey" stroke-width="2" />
<text x="275" y="225" font-size="24" font-family="sans-serif" text-anchor="middle" alignment-baseline="central" stroke="black" fill="black">5</text>
<rect x="300" y="200" width="50" height="50" stroke="black" stroke-width="2" fill="white" />
<polygon points="325,237.5 312.5,212.5 337.5,212.5" class="arrow" fill="lightgrey" stroke="darkslategrey" stroke-width="2" />
<text x="325" y="225" font-size="24" font-family="sans-serif" text-anchor="middle" alignment-baseline="central" stroke="black" fill="black">1</text>
<rect x="350" y="200" width="50" height="50" stroke="black" stroke-width="2" fill="white" />
<polygon points="375,212.5 362.5,237.5 387.5,237.5" class="arrow" fill="lightgrey" stroke="darkslategrey" stroke-width="2" />
<text x="375" y="225" font-size="24" font-family="sans-serif" text-anchor="middle" alignment-baseline="central" stroke="black" fill="black">3</text>
<rect x="400" y="200" width="50" height="50" stroke="black" stroke-width="2" fill="white" />
<polygon points="412.5,225 437.5,212.5 437.5,237.5" class="arrow" fill="lightgrey" stroke="darkslategrey" stroke-width="2" />
<text x="425" y="225" font-size="24" font-family="sans-serif" text-anchor="middle" alignment-baseline="central" stroke="black" fill="black">5</text>
<rect x="450" y="200" width="50" height="50" stroke="black" stroke-width="2" fill="white" />
<polygon points="487.5,225 462.5,212.5 462.5,237.5" class="arrow" fill="lightgrey" stroke="darkslategrey" stroke-width="2" />
<text x="475" y="225" font-size="24" font-family="sans-serif" text-anchor="middle" alignment-baseline="central" stroke="black" fill="black">4</text>

<rect x="0" y="250" width="50" height="50" stroke="black" stroke-width="2" fill="white" />
<polygon points="25,262.5 12.5,287.5 37.5,287.5" class="arrow" fill="lightgrey" stroke="darkslategrey" stroke-width="2" />
<text x="25" y="275" font-size="24" font-family="sans-serif" text-anchor="middle" alignment-baseline="central" stroke="black" fill="black">1</text>
<rect x="50" y="250" width="50" height="50" stroke="black" stroke-width="2" fill="white" />
<polygon points="75,262.5 62.5,287.5 87.5,287.5" class="arrow" fill="lightgrey" stroke="darkslategrey" stroke-width="2" />
<text x="75" y="275" font-size="24" font-family="sans-serif" text-anchor="middle" alignment-baseline="central" stroke="black" fill="black">2</text>
<rect x="100" y="250" width="50" height="50" stroke="black" stroke-width="2" fill="white" />
<polygon points="112.5,275 137.5,262.5 137.5,287.5" class="arrow" fill="lightgrey" stroke="darkslategrey" stroke-width="2" />
<text x="125" y="275" font-size="24" font-family="sans-serif" text-anchor="middle" alignment-baseline="central" stroke="black" fill="black">6</text>
<rect x="150" y="250" width="50" height="50" stroke="black" stroke-width="2" fill="white" />
<polygon points="175,262.5 162.5,287.5 187.5,287.5" class="arrow" fill="lightgrey" stroke="darkslategrey" stroke-width="2" />
<text x="175" y="275" font-size="24" font-family="sans-serif" text-anchor="middle" alignment-baseline="central" stroke="black" fill="black">3</text>
<rect x="200" y="250" width="50" height="50" stroke="black" stroke-width="2" fill="white" />
<polygon points="237.5,275 212.5,262.5 212.5,287.5" class="arrow" fill="lightgrey" stroke="darkslategrey" stroke-width="2" />
<text x="225" y="275" font-size="24" font-family="sans-serif" text-anchor="middle" alignment-baseline="central" stroke="black" fill="black">4</text>
<rect x="250" y="250" width="50" height="50" stroke="black" stroke-width="2" fill="white" />
<polygon points="275,262.5 262.5,287.5 287.5,287.5" class="arrow" fill="lightgrey" stroke="darkslategrey" stroke-width="2" />
<text x="275" y="275" font-size="24" font-family="sans-serif" text-anchor="middle" alignment-baseline="central" stroke="black" fill="black">6</text>
<rect x="300" y="250" width="50" height="50" stroke="black" stroke-width="2" fill="white" />
<polygon points="337.5,275 312.5,262.5 312.5,287.5" class="arrow" fill="lightgrey" stroke="darkslategrey" stroke-width="2" />
<text x="325" y="275" font-size="24" font-family="sans-serif" text-anchor="middle" alignment-baseline="central" stroke="black" fill="black">1</text>
<rect x="350" y="250" width="50" height="50" stroke="black" stroke-width="2" fill="white" />
<polygon points="375,287.5 362.5,262.5 387.5,262.5" class="arrow" fill="lightgrey" stroke="darkslategrey" stroke-width="2" />
<text x="375" y="275" font-size="24" font-family="sans-serif" text-anchor="middle" alignment-baseline="central" stroke="black" fill="black">3</text>
<rect x="400" y="250" width="50" height="50" stroke="black" stroke-width="2" fill="white" />
<polygon points="425,287.5 412.5,262.5 437.5,262.5" class="arrow" fill="lightgrey" stroke="darkslategrey" stroke-width="2" />
<text x="425" y="275" font-size="24" font-family="sans-serif" text-anchor="middle" alignment-baseline="central" stroke="black" fill="black">1</text>
<rect x="450" y="250" width="50" height="50" stroke="black" stroke-width="2" fill="white" />
<polygon points="487.5,275 462.5,262.5 462.5,287.5" class="arrow" fill="lightgrey" stroke="darkslategrey" stroke-width="2" />
<text x="475" y="275" font-size="24" font-family="sans-serif" text-anchor="middle" alignment-baseline="central" stroke="black" fill="black">2</text>

<rect x="0" y="300" width="50" height="50" stroke="black" stroke-width="2" fill="white" />
<polygon points="25,337.5 12.5,312.5 37.5,312.5" class="arrow" fill="lightgrey" stroke="darkslategrey" stroke-width="2" />
<text x="25" y="325" font-size="24" font-family="sans-serif" text-anchor="middle" alignment-baseline="central" stroke="black" fill="black">7</text>
<rect x="50" y="300" width="50" height="50" stroke="black" stroke-width="2" fill="white" />
<polygon points="75,312.5 62.5,337.5 87.5,337.5" class="arrow" fill="lightgrey" stroke="darkslategrey" stroke-width="2" />
<text x="75" y="325" font-size="24" font-family="sans-serif" text-anchor="middle" alignment-baseline="central" stroke="black" fill="black">5</text>
<rect x="100" y="300" width="50" height="50" stroke="black" stroke-width="2" fill="white" />
<polygon points="125,337.5 112.5,312.5 137.5,312.5" class="arrow" fill="lightgrey" stroke="darkslategrey" stroke-width="2" />
<text x="125" y="325" font-size="24" font-family="sans-serif" text-anchor="middle" alignment-baseline="central" stroke="black" fill="black">4</text>
<rect x="150" y="300" width="50" height="50" stroke="black" stroke-width="2" fill="white" />
<polygon points="162.5,325 187.5,312.5 187.5,337.5" class="arrow" fill="lightgrey" stroke="darkslategrey" stroke-width="2" />
<text x="175" y="325" font-size="24" font-family="sans-serif" text-anchor="middle" alignment-baseline="central" stroke="black" fill="black">7</text>
<rect x="200" y="300" width="50" height="50" stroke="black" stroke-width="2" fill="white" />
<polygon points="212.5,325 237.5,312.5 237.5,337.5" class="arrow" fill="lightgrey" stroke="darkslategrey" stroke-width="2" />
<text x="225" y="325" font-size="24" font-family="sans-serif" text-anchor="middle" alignment-baseline="central" stroke="black" fill="black">7</text>
<rect x="250" y="300" width="50" height="50" stroke="black" stroke-width="2" fill="white" />
<polygon points="275,337.5 262.5,312.5 287.5,312.5" class="arrow" fill="lightgrey" stroke="darkslategrey" stroke-width="2" />
<text x="275" y="325" font-size="24" font-family="sans-serif" text-anchor="middle" alignment-baseline="central" stroke="black" fill="black">2</text>
<rect x="300" y="300" width="50" height="50" stroke="black" stroke-width="2" fill="white" />
<polygon points="337.5,325 312.5,312.5 312.5,337.5" class="arrow" fill="lightgrey" stroke="darkslategrey" stroke-width="2" />
<text x="325" y="325" font-size="24" font-family="sans-serif" text-anchor="middle" alignment-baseline="central" stroke="black" fill="black">4</text>
<rect x="350" y="300" width="50" height="50" stroke="black" stroke-width="2" fill="white" />
<polygon points="375,337.5 362.5,312.5 387.5,312.5" class="arrow" fill="lightgrey" stroke="darkslategrey" stroke-width="2" />
<text x="375" y="325" font-size="24" font-family="sans-serif" text-anchor="middle" alignment-baseline="central" stroke="black" fill="black">2</text>
<rect x="400" y="300" width="50" height="50" stroke="black" stroke-width="2" fill="white" />
<polygon points="425,337.5 412.5,312.5 437.5,312.5" class="arrow" fill="lightgrey" stroke="darkslategrey" stroke-width="2" />
<text x="425" y="325" font-size="24" font-family="sans-serif" text-anchor="middle" alignment-baseline="central" stroke="black" fill="black">1</text>
<rect x="450" y="300" width="50" height="50" stroke="black" stroke-width="2" fill="white" />
<polygon points="475,337.5 462.5,312.5 487.5,312.5" class="arrow" fill="lightgrey" stroke="darkslategrey" stroke-width="2" />
<text x="475" y="325" font-size="24" font-family="sans-serif" text-anchor="middle" alignment-baseline="central" stroke="black" fill="black">1</text>

<rect x="0" y="350" width="50" height="50" stroke="black" stroke-width="2" fill="white" />
<polygon points="25,362.5 12.5,387.5 37.5,387.5" class="arrow" fill="lightgrey" stroke="darkslategrey" stroke-width="2" />
<text x="25" y="375" font-size="24" font-family="sans-serif" text-anchor="middle" alignment-baseline="central" stroke="black" fill="black">1</text>
<rect x="50" y="350" width="50" height="50" stroke="black" stroke-width="2" fill="white" />
<polygon points="62.5,375 87.5,362.5 87.5,387.5" class="arrow" fill="lightgrey" stroke="darkslategrey" stroke-width="2" />
<text x="75" y="375" font-size="24" font-family="sans-serif" text-anchor="middle" alignment-baseline="central" stroke="black" fill="black">8</text>
<rect x="100" y="350" width="50" height="50" stroke="black" stroke-width="2" fill="white" />
<polygon points="112.5,375 137.5,362.5 137.5,387.5" class="arrow" fill="lightgrey" stroke="darkslategrey" stroke-width="2" />
<text x="125" y="375" font-size="24" font-family="sans-serif" text-anchor="middle" alignment-baseline="central" stroke="black" fill="black">8</text>
<rect x="150" y="350" width="50" height="50" stroke="black" stroke-width="2" fill="white" />
<polygon points="187.5,375 162.5,362.5 162.5,387.5" class="arrow" fill="lightgrey" stroke="darkslategrey" stroke-width="2" />
<text x="175" y="375" font-size="24" font-family="sans-serif" text-anchor="middle" alignment-baseline="central" stroke="black" fill="black">2</text>
<rect x="200" y="350" width="50" height="50" stroke="black" stroke-width="2" fill="white" />
<polygon points="225,362.5 212.5,387.5 237.5,387.5" class="arrow" fill="lightgrey" stroke="darkslategrey" stroke-width="2" />
<text x="225" y="375" font-size="24" font-family="sans-serif" text-anchor="middle" alignment-baseline="central" stroke="black" fill="black">5</text>
<rect x="250" y="350" width="50" height="50" stroke="black" stroke-width="2" fill="white" />
<polygon points="287.5,375 262.5,362.5 262.5,387.5" class="arrow" fill="lightgrey" stroke="darkslategrey" stroke-width="2" />
<text x="275" y="375" font-size="24" font-family="sans-serif" text-anchor="middle" alignment-baseline="central" stroke="black" fill="black">2</text>
<rect x="300" y="350" width="50" height="50" stroke="black" stroke-width="2" fill="white" />
<polygon points="325,362.5 312.5,387.5 337.5,387.5" class="arrow" fill="lightgrey" stroke="darkslategrey" stroke-width="2" />
<text x="325" y="375" font-size="24" font-family="sans-serif" text-anchor="middle" alignment-baseline="central" stroke="black" fill="black">5</text>
<rect x="350" y="350" width="50" height="50" stroke="black" stroke-width="2" fill="white" />
<circle cx="375" cy="375" r="10" stroke-width="3" stroke="red" fill="none" />
<rect x="400" y="350" width="50" height="50" stroke="black" stroke-width="2" fill="white" />
<polygon points="412.5,375 437.5,362.5 437.5,387.5" class="arrow" fill="lightgrey" stroke="darkslategrey" stroke-width="2" />
<text x="425" y="375" font-size="24" font-family="sans-serif" text-anchor="middle" alignment-baseline="central" stroke="black" fill="black">3</text>
<rect x="450" y="350" width="50" height="50" stroke="black" stroke-width="2" fill="white" />
<polygon points="475,362.5 462.5,387.5 487.5,387.5" class="arrow" fill="lightgrey" stroke="darkslategrey" stroke-width="2" />
<text x="475" y="375" font-size="24" font-family="sans-serif" text-anchor="middle" alignment-baseline="central" stroke="black" fill="black">10</text>

<rect x="0" y="400" width="50" height="50" stroke="black" stroke-width="2" fill="white" />
<polygon points="25,412.5 12.5,437.5 37.5,437.5" class="arrow" fill="lightgrey" stroke="darkslategrey" stroke-width="2" />
<text x="25" y="425" font-size="24" font-family="sans-serif" text-anchor="middle" alignment-baseline="central" stroke="black" fill="black">1</text>
<rect x="50" y="400" width="50" height="50" stroke="black" stroke-width="2" fill="white" />
<polygon points="62.5,425 87.5,412.5 87.5,437.5" class="arrow" fill="lightgrey" stroke="darkslategrey" stroke-width="2" />
<text x="75" y="425" font-size="24" font-family="sans-serif" text-anchor="middle" alignment-baseline="central" stroke="black" fill="black">9</text>
<rect x="100" y="400" width="50" height="50" stroke="black" stroke-width="2" fill="white" />
<polygon points="112.5,425 137.5,412.5 137.5,437.5" class="arrow" fill="lightgrey" stroke="darkslategrey" stroke-width="2" />
<text x="125" y="425" font-size="24" font-family="sans-serif" text-anchor="middle" alignment-baseline="central" stroke="black" fill="black">9</text>
<rect x="150" y="400" width="50" height="50" stroke="black" stroke-width="2" fill="white" />
<polygon points="187.5,425 162.5,412.5 162.5,437.5" class="arrow" fill="lightgrey" stroke="darkslategrey" stroke-width="2" />
<text x="175" y="425" font-size="24" font-family="sans-serif" text-anchor="middle" alignment-baseline="central" stroke="black" fill="black">5</text>
<rect x="200" y="400" width="50" height="50" stroke="black" stroke-width="2" fill="white" />
<polygon points="225,412.5 212.5,437.5 237.5,437.5" class="arrow" fill="lightgrey" stroke="darkslategrey" stroke-width="2" />
<text x="225" y="425" font-size="24" font-family="sans-serif" text-anchor="middle" alignment-baseline="central" stroke="black" fill="black">5</text>
<rect x="250" y="400" width="50" height="50" stroke="black" stroke-width="2" fill="white" />
<polygon points="287.5,425 262.5,412.5 262.5,437.5" class="arrow" fill="lightgrey" stroke="darkslategrey" stroke-width="2" />
<text x="275" y="425" font-size="24" font-family="sans-serif" text-anchor="middle" alignment-baseline="central" stroke="black" fill="black">1</text>
<rect x="300" y="400" width="50" height="50" stroke="black" stroke-width="2" fill="white" />
<polygon points="325,412.5 312.5,437.5 337.5,437.5" class="arrow" fill="lightgrey" stroke="darkslategrey" stroke-width="2" />
<text x="325" y="425" font-size="24" font-family="sans-serif" text-anchor="middle" alignment-baseline="central" stroke="black" fill="black">1</text>
<rect x="350" y="400" width="50" height="50" stroke="black" stroke-width="2" fill="white" />
<polygon points="362.5,425 387.5,412.5 387.5,437.5" class="arrow" fill="lightgrey" stroke="darkslategrey" stroke-width="2" />
<text x="375" y="425" font-size="24" font-family="sans-serif" text-anchor="middle" alignment-baseline="central" stroke="black" fill="black">4</text>
<rect x="400" y="400" width="50" height="50" stroke="black" stroke-width="2" fill="white" />
<polygon points="412.5,425 437.5,412.5 437.5,437.5" class="arrow" fill="lightgrey" stroke="darkslategrey" stroke-width="2" />
<text x="425" y="425" font-size="24" font-family="sans-serif" text-anchor="middle" alignment-baseline="central" stroke="black" fill="black">3</text>
<rect x="450" y="400" width="50" height="50" stroke="black" stroke-width="2" fill="white" />
<polygon points="475,412.5 462.5,437.5 487.5,437.5" class="arrow" fill="lightgrey" stroke="darkslategrey" stroke-width="2" />
<text x="475" y="425" font-size="24" font-family="sans-serif" text-anchor="middle" alignment-baseline="central" stroke="black" fill="black">10</text>

<rect x="0" y="450" width="50" height="50" stroke="black" stroke-width="2" fill="white" />
<polygon points="25,462.5 12.5,487.5 37.5,487.5" class="arrow" fill="lightgrey" stroke="darkslategrey" stroke-width="2" />
<text x="25" y="475" font-size="24" font-family="sans-serif" text-anchor="middle" alignment-baseline="central" stroke="black" fill="black">1</text>
<rect x="50" y="450" width="50" height="50" stroke="black" stroke-width="2" fill="white" />
<polygon points="87.5,475 62.5,462.5 62.5,487.5" class="arrow" fill="lightgrey" stroke="darkslategrey" stroke-width="2" />
<text x="75" y="475" font-size="24" font-family="sans-serif" text-anchor="middle" alignment-baseline="central" stroke="black" fill="black">1</text>
<rect x="100" y="450" width="50" height="50" stroke="black" stroke-width="2" fill="white" />
<polygon points="125,487.5 112.5,462.5 137.5,462.5" class="arrow" fill="lightgrey" stroke="darkslategrey" stroke-width="2" />
<text x="125" y="475" font-size="24" font-family="sans-serif" text-anchor="middle" alignment-baseline="central" stroke="black" fill="black">6</text>
<rect x="150" y="450" width="50" height="50" stroke="black" stroke-width="2" fill="white" />
<polygon points="187.5,475 162.5,462.5 162.5,487.5" class="arrow" fill="lightgrey" stroke="darkslategrey" stroke-width="2" />
<text x="175" y="475" font-size="24" font-family="sans-serif" text-anchor="middle" alignment-baseline="central" stroke="black" fill="black">1</text>
<rect x="200" y="450" width="50" height="50" stroke="black" stroke-width="2" fill="white" />
<polygon points="225,487.5 212.5,462.5 237.5,462.5" class="arrow" fill="lightgrey" stroke="darkslategrey" stroke-width="2" />
<text x="225" y="475" font-size="24" font-family="sans-serif" text-anchor="middle" alignment-baseline="central" stroke="black" fill="black">5</text>
<rect x="250" y="450" width="50" height="50" stroke="black" stroke-width="2" fill="white" />
<polygon points="275,462.5 262.5,487.5 287.5,487.5" class="arrow" fill="lightgrey" stroke="darkslategrey" stroke-width="2" />
<text x="275" y="475" font-size="24" font-family="sans-serif" text-anchor="middle" alignment-baseline="central" stroke="black" fill="black">6</text>
<rect x="300" y="450" width="50" height="50" stroke="black" stroke-width="2" fill="white" />
<polygon points="325,462.5 312.5,487.5 337.5,487.5" class="arrow" fill="lightgrey" stroke="darkslategrey" stroke-width="2" />
<text x="325" y="475" font-size="24" font-family="sans-serif" text-anchor="middle" alignment-baseline="central" stroke="black" fill="black">5</text>
<rect x="350" y="450" width="50" height="50" stroke="black" stroke-width="2" fill="white" />
<polygon points="387.5,475 362.5,462.5 362.5,487.5" class="arrow" fill="lightgrey" stroke="darkslategrey" stroke-width="2" />
<text x="375" y="475" font-size="24" font-family="sans-serif" text-anchor="middle" alignment-baseline="central" stroke="black" fill="black">1</text>
<rect x="400" y="450" width="50" height="50" stroke="black" stroke-width="2" fill="white" />
<polygon points="425,462.5 412.5,487.5 437.5,487.5" class="arrow" fill="lightgrey" stroke="darkslategrey" stroke-width="2" />
<text x="425" y="475" font-size="24" font-family="sans-serif" text-anchor="middle" alignment-baseline="central" stroke="black" fill="black">9</text>
<rect x="450" y="450" width="50" height="50" stroke="black" stroke-width="2" fill="white" />
<polygon points="475,462.5 462.5,487.5 487.5,487.5" class="arrow" fill="lightgrey" stroke="darkslategrey" stroke-width="2" />
<text x="475" y="475" font-size="24" font-family="sans-serif" text-anchor="middle" alignment-baseline="central" stroke="black" fill="black">10</text>

</svg>